Coordinates
version=1
nRows=11
nColumns=40
inDegrees=yes

Units are S.I. units (second, meters, Newtons, ...)
Angles are in degrees.

endheader
time	pelvis_tilt	pelvis_list	pelvis_rotation	pelvis_tx	pelvis_ty	pelvis_tz	hip_flexion_r	hip_adduction_r	hip_rotation_r	knee_angle_r	knee_angle_r_beta	ankle_angle_r	subtalar_angle_r	mtp_angle_r	hip_flexion_l	hip_adduction_l	hip_rotation_l	knee_angle_l	knee_angle_l_beta	ankle_angle_l	subtalar_angle_l	mtp_angle_l	lumbar_extension	lumbar_bending	lumbar_rotation	arm_flex_r	arm_add_r	arm_rot_r	elbow_flex_r	pro_sup_r	wrist_flex_r	wrist_dev_r	arm_flex_l	arm_add_l	arm_rot_l	elbow_flex_l	pro_sup_l	wrist_flex_l	wrist_dev_l
     30.27000000	     -7.33473312	     -4.44148721	      3.29700826	      0.78753470	      0.92041177	      0.36721738	      8.31478059	     -7.01557678	    -11.14842895	     37.28241784	     37.28241784	      4.44181166	     -6.98510386	    -25.03386787	     23.29710448	     -3.49638360	      1.60863770	     28.88734096	     28.88734096	     15.10319976	    -13.95330460	      7.37928444	     -9.90380508	      6.25886899	      4.80889985	     17.98482187	    -15.38971298	    -10.98960230	     30.71836624	     45.77728217	      0.00000000	      0.00000000	     -5.32858020	    -15.69566791	      3.72015772	     42.01559248	     45.90791202	      0.00000000	      0.00000000
     30.28885714	     -7.28875134	     -4.50763056	      3.06386176	      0.78729017	      0.91928480	      0.36394957	     10.53775653	     -7.43231360	    -10.03144410	     41.60263397	     41.60263397	      2.33901824	     -9.80009891	    -25.10955063	     23.08004754	     -3.40285455	      1.52694085	     29.43115498	     29.43115498	     15.77042559	    -14.16885013	      7.23741781	    -10.00780701	      6.26254453	      4.80606810	     14.72289435	    -15.04537791	    -11.02082066	     29.36134704	     45.82127917	      0.00000000	      0.00000000	     -3.94425503	    -15.93357464	      2.99693923	     43.98005993	     46.02721886	      0.00000000	      0.00000000
     30.30771429	     -7.27474838	     -4.45183739	      2.82493691	      0.78693784	      0.91798670	      0.36060485	     12.81506559	     -7.98629479	     -9.07393729	     45.89428411	     45.89428411	      0.20922109	    -12.04392871	    -24.76235498	     22.84485432	     -3.18859144	      1.33190441	     29.90123796	     29.90123796	     16.41815507	    -14.30454425	      6.97297501	    -10.04742702	      6.18509334	      4.60521194	     11.57562222	    -14.56621646	    -10.98838398	     28.09335626	     45.85085705	      0.00000000	      0.00000000	     -2.48667615	    -16.19902112	      2.36440748	     45.58699159	     46.12677859	      0.00000000	      0.00000000
     30.32657143	     -7.11338538	     -4.39121288	      2.65402527	      0.78644118	      0.91698912	      0.35737878	     14.82312356	     -8.43091076	     -8.23105844	     49.84444022	     49.84444022	     -1.92488615	    -14.06209367	    -23.91684614	     22.48664440	     -2.97120931	      1.19598486	     30.40495664	     30.40495664	     17.00347202	    -14.39178786	      6.69720841	    -10.37128745	      6.06373286	      4.26263163	      8.57335913	    -14.01788157	    -10.95038634	     26.88176849	     45.87630351	      0.00000000	      0.00000000	     -0.86706258	    -16.57326802	      1.74720325	     47.10386038	     46.22167913	      0.00000000	      0.00000000
     30.34542857	     -7.19067751	     -4.45686927	      2.28359363	      0.78563960	      0.91589241	      0.35473169	     17.12229064	     -8.46641659	     -7.18070723	     53.48366788	     53.48366788	     -3.84468763	    -16.26690579	    -22.06674908	     22.30762078	     -2.96562979	      0.88739721	     30.73588811	     30.73588811	     17.60905278	    -14.46492276	      6.47527184	    -10.41888958	      6.09570645	      4.59566550	      5.41850617	    -13.72772981	    -10.96140537	     25.63020102	     45.90793941	      0.00000000	      0.00000000	      0.83195319	    -16.64877150	      0.96078723	     49.21237721	     46.33916778	      0.00000000	      0.00000000
     30.36428571	     -7.06132022	     -4.73873380	      1.96122691	      0.78477016	      0.91546168	      0.35250562	     19.23632182	     -8.03658065	     -6.26065429	     57.04254311	     57.04254311	     -3.30985260	    -16.46874769	    -13.89502124	     21.92040976	     -3.28964023	      0.49351897	     31.05514843	     31.05514843	     18.35351195	    -14.01163097	      6.46714117	    -10.81713621	      6.37800639	      4.73686140	      2.18174509	    -13.39233373	    -11.60362565	     25.90465084	     45.94838499	      0.00000000	      0.00000000	      1.68452656	    -16.58723187	     -0.95956159	     53.44879749	     46.59488856	      0.00000000	      0.00000000
     30.38314286	     -7.15888411	     -4.73901877	      1.55422969	      0.78348625	      0.91512121	      0.35045036	     21.35193823	     -8.02995836	     -5.72899664	     59.63693159	     59.63693159	     -4.26548032	    -17.42769315	    -11.89245570	     21.63236087	     -3.26257372	      0.11996661	     31.06190813	     31.06190813	     18.68897495	    -14.03144108	      6.37457049	    -10.90210109	      6.37452886	      4.77638537	     -0.22216867	    -13.02526350	    -11.60290523	     24.83976026	     45.98005890	      0.00000000	      0.00000000	      3.44500146	    -16.63320973	     -1.61596701	     54.96948902	     46.69038193	      0.00000000	      0.00000000
     30.40200000	     -7.12927240	     -4.96146659	      1.13922690	      0.78209484	      0.91552075	      0.34908435	     23.40720968	     -7.48112224	     -5.24435812	     62.01725561	     62.01725561	     -2.20958950	    -16.96163741	     -2.49127983	     21.16283199	     -3.59195549	     -0.39749499	     30.94535171	     30.94535171	     19.05971104	    -13.60607380	      6.26128373	    -11.24329131	      6.57691978	      4.56077165	     -2.51482094	    -12.66344638	    -12.17978751	     24.96263238	     46.03893976	      0.00000000	      0.00000000	      4.64514595	    -16.67777212	     -3.17670680	     57.71084403	     46.88807996	      0.00000000	      0.00000000
     30.42085714	     -7.21432823	     -5.05510485	      0.59829704	      0.78049510	      0.91632439	      0.34802846	     25.18761971	     -7.12469873	     -5.07977887	     63.06138446	     63.06138446	     -2.24286765	    -17.52222354	     -1.36714832	     20.65208622	     -3.76463494	     -0.89567969	     30.52157295	     30.52157295	     19.19154258	    -13.49578555	      6.28925083	    -11.44239721	      6.64422072	      4.65326091	     -4.35421586	    -12.45212611	    -12.23936509	     24.26178853	     46.06671229	      0.00000000	      0.00000000	      6.36385701	    -16.71129742	     -3.81496812	     59.38421391	     46.98103835	      0.00000000	      0.00000000
     30.43971429	     -7.30482753	     -5.16948584	     -0.04957664	      0.77880563	      0.91764052	      0.34754864	     26.83359204	     -6.60007030	     -5.01963557	     63.31799670	     63.31799670	     -1.60178195	    -17.75135581	      0.07914654	     20.03030054	     -4.04419322	     -1.60602974	     29.88659533	     29.88659533	     19.22475378	    -13.23072732	      6.33551867	    -11.66539124	      6.71455670	      4.69512272	     -5.99299917	    -12.26706860	    -12.42089100	     24.07533394	     46.08408983	      0.00000000	      0.00000000	      7.84388143	    -16.75092855	     -4.64379541	     61.48784743	     47.09290043	      0.00000000	      0.00000000
     30.45857143	     -7.56167198	     -5.37123444	     -0.70535516	      0.77694705	      0.91915929	      0.34745638	     28.38593864	     -5.94100425	     -5.22695403	     62.58422618	     62.58422618	     -0.74571395	    -17.72371577	      0.12269624	     19.53590755	     -4.38204302	     -2.10264170	     29.12124798	     29.12124798	     19.16706505	    -13.10477422	      6.49760532	    -11.69525769	      6.90117154	      4.10939180	     -6.84601740	    -12.18616035	    -12.48050678	     23.95124803	     46.08852524	      0.00000000	      0.00000000	      9.18265535	    -17.38586983	     -5.08241279	     62.39607689	     47.14967130	      0.00000000	      0.00000000
